<!-- вызывать с помощью: <use href="sprite.svg#id" x="0" y="0"></use> -->
<svg xmlns="http://www.w3.org/2000/svg">
  <!-- header -->
  <symbol id="header-location" viewBox="0 0 19 19">
    <path
      d="M9.5 16.5C9.48177 16.4818 9.20833 16.1719 8.67969 15.5703C8.16927 14.9688 7.56771 14.2031 6.875 13.2734C6.20052 12.3438 5.59896 11.3867 5.07031 10.4023C4.5599 9.41797 4.28646 8.53385 4.25 7.75C4.28646 6.25521 4.79688 5.01562 5.78125 4.03125C6.76562 3.04688 8.00521 2.53646 9.5 2.5C10.9948 2.53646 12.2344 3.04688 13.2188 4.03125C14.2031 5.01562 14.7135 6.25521 14.75 7.75C14.7318 8.53385 14.4583 9.41797 13.9297 10.4023C13.4193 11.3867 12.8177 12.3438 12.125 13.2734C11.4505 14.2031 10.849 14.9688 10.3203 15.5703C9.8099 16.1719 9.53646 16.4818 9.5 16.5ZM9.5 6C8.84375 6.01823 8.34245 6.3099 7.99609 6.875C7.66797 7.45833 7.66797 8.04167 7.99609 8.625C8.34245 9.1901 8.84375 9.48177 9.5 9.5C10.1562 9.48177 10.6576 9.1901 11.0039 8.625C11.332 8.04167 11.332 7.45833 11.0039 6.875C10.6576 6.3099 10.1562 6.01823 9.5 6Z"
      fill="#30B45B" />
  </symbol>

  <symbol id="header-contacts" viewBox="0 0 19 19">
    <path
      d="M2.5 3.375L6.4375 2.5L8.625 6.4375L6.32812 8.26953C7.34896 10.1836 8.81641 11.651 10.7305 12.6719L12.5625 10.375L16.5 12.5625L15.625 16.5H14.75C12.4714 16.4818 10.4115 15.9258 8.57031 14.832C6.72917 13.7383 5.26172 12.2708 4.16797 10.4297C3.07422 8.58854 2.51823 6.52865 2.5 4.25V3.375Z"
      fill="#30B45B" />
  </symbol>

  <symbol id="header-search">
    <path
      d="M15.9516 9.43034C15.9291 11.0056 15.479 12.3896 14.6013 13.5823L18.3482 17.2955L19.0909 18.0719L17.5719 19.5909L16.7955 18.8483L13.0823 15.1014C11.8896 15.979 10.5056 16.4291 8.93031 16.4516C6.94996 16.4066 5.29591 15.7202 3.96818 14.3925C2.64044 13.0647 1.95407 11.4107 1.90906 9.43034C1.95407 7.44999 2.64044 5.79594 3.96818 4.46821C5.29591 3.14047 6.94996 2.4541 8.93031 2.40909C10.9107 2.4541 12.5647 3.14047 13.8924 4.46821C15.2202 5.79594 15.9066 7.44999 15.9516 9.43034ZM8.93031 14.2912C9.80797 14.2912 10.6181 14.0774 11.3607 13.6498C12.1034 13.2223 12.6997 12.6259 13.1498 11.8608C13.5774 11.0956 13.7912 10.2855 13.7912 9.43034C13.7912 8.57519 13.5774 7.76504 13.1498 6.99991C12.6997 6.23477 12.1034 5.63841 11.3607 5.21084C10.6181 4.78326 9.80797 4.56947 8.93031 4.56947C8.05265 4.56947 7.24251 4.78326 6.49988 5.21084C5.75724 5.63841 5.16089 6.23477 4.71081 6.99991C4.28323 7.76504 4.06944 8.57519 4.06944 9.43034C4.06944 10.2855 4.28323 11.0956 4.71081 11.8608C5.16089 12.6259 5.75724 13.2223 6.49988 13.6498C7.24251 14.0774 8.05265 14.2912 8.93031 14.2912Z"
      fill="#30B45B" />
  </symbol>

  <symbol id="header-catalog">
    <rect x="2" y="6" width="16" height="2" fill="white" />
    <rect x="2" y="12" width="12" height="2" fill="white" />
  </symbol>

  <symbol id="header-catalog-close">
    <path
      d="M13.9086 7.42332L11.3029 10L13.9086 12.5768L14.5455 13.2427L13.2427 14.5455L12.5768 13.9086L10 11.3029L7.42332 13.9086L6.75743 14.5455L5.45459 13.2427L6.09153 12.5768L8.69721 10L6.09153 7.42332L5.45459 6.75743L6.75743 5.45459L7.42332 6.09153L10 8.69721L12.5768 6.09153L13.2427 5.45459L14.5455 6.75743L13.9086 7.42332Z"
      fill="white" />
  </symbol>

  <symbol id="header-services">
    <rect x="7" y="7" width="5" height="5" stroke="#30B45B" stroke-width="2" />
    <rect x="7" y="16" width="5" height="5" stroke="#30B45B" stroke-width="2" />
    <rect x="16" y="7" width="5" height="5" stroke="#30B45B" stroke-width="2" />
    <rect x="16" y="16" width="5" height="5" stroke="#30B45B" stroke-width="2" />
  </symbol>

  <symbol id="header-person">
    <path fill-rule="evenodd" clip-rule="evenodd"
      d="M7.16504 5.83656C7.16504 3.71758 8.88146 2.00082 10.9984 2.00082C13.1153 2.00082 14.8317 3.71758 14.8317 5.83656C14.8317 7.95388 13.1153 9.67147 10.9984 9.67147C8.88146 9.67147 7.16504 7.95388 7.16504 5.83656ZM10.9984 0C7.77671 0 5.16504 2.61274 5.16504 5.83656C5.16504 9.05872 7.77671 11.6723 10.9984 11.6723C14.22 11.6723 16.8317 9.05872 16.8317 5.83656C16.8317 2.61274 14.22 0 10.9984 0ZM0.810009 18.7584C1.34339 16.6221 2.67748 13.6112 5.30264 11.6248C5.79182 12.1205 6.34527 12.5526 6.94947 12.9076C5.00545 14.1837 3.79343 16.207 3.13243 18.0011H18.8354C18.1577 16.2199 16.9382 14.1995 15.023 12.9122C15.6262 12.5588 16.1789 12.1286 16.6678 11.6349C19.263 13.6316 20.6172 16.6354 21.1712 18.7468L21.5 20H0.5L0.810009 18.7584Z"
      fill="#1A1D1F" />
  </symbol>

  <symbol id="header-save">
    <path d="M7.5 22.259V5H20.5V22.259L14.5039 18.7612L14 18.4673L13.4961 18.7612L7.5 22.259Z"
      stroke="#1A1D1F" stroke-width="2" />
  </symbol>

  <symbol id="header-cart">
    <g clip-path="url(#clip0_2092_420)">
      <path
        d="M9.75696 17.3333L5.90458 3.99998H0L1.02612 6.05127H4.35658L8.20896 19.3846H23.3486L24.3747 17.3333H9.75696Z"
        fill="#1A1D1F" />
      <path fill-rule="evenodd" clip-rule="evenodd"
        d="M28.0001 8.10255H8.82755L11.0264 15.7949H24.7018L28.0001 8.10255ZM12.5744 13.7436L11.5483 10.1538H24.8878L23.3486 13.7436H12.5744Z"
        fill="#1A1D1F" />
      <path
        d="M12.8308 20.4103C13.8221 20.4103 14.6265 21.2132 14.6265 22.2051C14.6265 23.1971 13.8221 24 12.8308 24C11.8396 24 11.0351 23.1971 11.0351 22.2051C11.0351 21.2144 11.8396 20.4103 12.8308 20.4103Z"
        fill="#1A1D1F" />
      <path
        d="M17.0208 22.2051C17.0208 23.1971 17.8253 24 18.8165 24C19.8077 24 20.6122 23.1971 20.6122 22.2051C20.6122 21.2144 19.8077 20.4103 18.8165 20.4103C17.8253 20.4103 17.0208 21.2144 17.0208 22.2051Z"
        fill="#1A1D1F" />
    </g>
    <defs>
      <clipPath id="clip0_2092_420">
        <rect width="28" height="28" fill="white" />
      </clipPath>
    </defs>
  </symbol>
  <!-- header -->

  <!-- slider-main -->
  <symbol id="main-prev">
    <path
      d="M8.11841 11.2534L12.7927 6.57914L13.5393 5.86501L15 7.32572L14.2859 8.07231L11.3644 10.9613L10.3132 12L11.3644 13.0387L14.2859 15.9277L15 16.6743L13.5393 18.135L12.7927 17.4209L8.11841 12.7466L7.40429 12L8.11841 11.2534Z"
      fill="#1A1D1F" />
  </symbol>

  <symbol id="main-next">
    <path
      d="M15.8816 12.7466L11.2073 17.4209L10.4607 18.135L9 16.6743L9.71413 15.9277L12.6356 13.0387L13.6868 12L12.6356 10.9613L9.71413 8.07229L9 7.3257L10.4607 5.86499L11.2073 6.57912L15.8816 11.2534L16.5957 12L15.8816 12.7466Z"
      fill="#1A1D1F" />
  </symbol>
  <!-- slider-main -->

  <!-- advantages -->
  <symbol id="advantages-car">
    <path d="M6.50847 12H31.7288V14.1356H6.50847V12Z" fill="#30B45B" />
    <path fill-rule="evenodd" clip-rule="evenodd"
      d="M41.0949 14.8475L46.7797 20.5322V29.6542H44.5322C44.6203 30.0068 44.6644 30.3593 44.6644 30.7119C44.6203 32.2102 44.1136 33.4661 43.1441 34.4797C42.1305 35.4492 40.8746 35.9559 39.3763 36C37.878 35.9559 36.622 35.4492 35.6085 34.4797C34.639 33.4661 34.1322 32.2102 34.0881 30.7119C34.0881 30.3593 34.1322 30.0068 34.2203 29.6542H23.3797C23.4678 30.0068 23.5119 30.3593 23.5119 30.7119C23.4678 32.2102 22.961 33.4661 21.9915 34.4797C20.978 35.4492 19.722 35.9559 18.2237 36C16.4169 35.9559 15.0068 35.2508 13.9932 33.8847C12.9797 35.2508 11.5695 35.9559 9.76271 36C8.26441 35.9559 7.00847 35.4492 5.99491 34.4797C5.02542 33.4661 4.51864 32.2102 4.47458 30.7119V25.4237H33.0305V14.8475H41.0949ZM42.9458 21.1932L39.7729 18.0203H36.2034V21.1932H42.9458ZM39.3763 28.5966C38.7593 28.5966 38.2525 28.7949 37.8559 29.1915C37.4593 29.5881 37.261 30.0949 37.261 30.7119C37.261 31.3288 37.4593 31.8356 37.8559 32.2322C38.2525 32.6288 38.7593 32.8271 39.3763 32.8271C39.9932 32.8271 40.5 32.6288 40.8966 32.2322C41.2932 31.8356 41.4915 31.3288 41.4915 30.7119C41.4915 30.0949 41.2932 29.5881 40.8966 29.1915C40.5 28.7949 39.9932 28.5966 39.3763 28.5966ZM16.1085 30.7119C16.1085 31.3288 16.3068 31.8356 16.7034 32.2322C17.1 32.6288 17.6068 32.8271 18.2237 32.8271C18.8407 32.8271 19.3475 32.6288 19.7441 32.2322C20.1407 31.8356 20.339 31.3288 20.339 30.7119C20.339 30.0949 20.1407 29.5881 19.7441 29.1915C19.3475 28.7949 18.8407 28.5966 18.2237 28.5966C17.6068 28.5966 17.1 28.7949 16.7034 29.1915C16.3068 29.5881 16.1085 30.0949 16.1085 30.7119ZM9.76271 28.5966C9.14576 28.5966 8.63898 28.7949 8.24237 29.1915C7.84576 29.5881 7.64746 30.0949 7.64746 30.7119C7.64746 31.3288 7.84576 31.8356 8.24237 32.2322C8.63898 32.6288 9.14576 32.8271 9.76271 32.8271C10.3797 32.8271 10.8864 32.6288 11.283 32.2322C11.6797 31.8356 11.878 31.3288 11.878 30.7119C11.878 30.0949 11.6797 29.5881 11.283 29.1915C10.8864 28.7949 10.3797 28.5966 9.76271 28.5966Z"
      fill="#30B45B" />
    <path d="M31.7288 15.3559H2.44068V17.4915H31.7288V15.3559Z" fill="#30B45B" />
    <path d="M4.88136 18.7119H31.7288V20.8475H4.88136V18.7119Z" fill="#30B45B" />
    <path d="M31.7288 22.0678H0V24.2034H31.7288V22.0678Z" fill="#30B45B" />
  </symbol>

  <symbol id="advantages-tree">
    <path
      d="M3.6 16.8001L10.8 9.6001L18 16.8001V18.6001H15.3L19.8 24.0001V25.8001H17.1L21.6 31.2001V33.0001H12.6V38.4001H9V33.0001H0V31.2001L4.5 25.8001H1.8V24.0001L6.3 18.6001H3.6V16.8001ZM23.4 30.5251L23.0063 30.0751L20.925 27.6001H21.6V23.3251L21.2063 22.8751L19.125 20.4001H19.8V16.0688L19.2938 15.5063L25.2 9.6001L32.4 16.8001V18.6001H29.7L34.2 24.0001V25.8001H31.5L36 31.2001V33.0001H27V38.4001H23.4V30.5251Z"
      fill="#30B45B" />
  </symbol>
  <!-- advantages -->


  <symbol id="offers-cart" viewBox="0 0 21 20">
    <g clip-path="url(#clip0_2121_194)">
      <path
        d="M7.16927 12.381L4.41757 2.85718H0.200012L0.932952 4.32238H3.31186L6.06356 13.8462H16.8776L17.6105 12.381H7.16927Z"
      />
      <path fill-rule="evenodd" clip-rule="evenodd"
        d="M20.2001 5.78758H6.5054L8.07599 11.2821H17.8442L20.2001 5.78758ZM9.1817 9.81688L8.44876 7.25278H17.977L16.8776 9.81688H9.1817Z"
      />
      <path
        d="M9.36489 14.5788C10.0729 14.5788 10.6475 15.1523 10.6475 15.8609C10.6475 16.5694 10.0729 17.1429 9.36489 17.1429C8.65687 17.1429 8.08224 16.5694 8.08224 15.8609C8.08224 15.1532 8.65687 14.5788 9.36489 14.5788Z"
      />
      <path
        d="M12.3577 15.8609C12.3577 16.5694 12.9324 17.1429 13.6404 17.1429C14.3484 17.1429 14.923 16.5694 14.923 15.8609C14.923 15.1532 14.3484 14.5788 13.6404 14.5788C12.9324 14.5788 12.3577 15.1532 12.3577 15.8609Z"
      />
    </g>
    <defs>
      <clipPath id="clip0_2121_194">
        <rect width="20" height="20" fill="white" transform="translate(0.200012)" />
      </clipPath>
    </defs>
  </symbol>

  <symbol id="offers-save" viewBox="0 0 25 25">
    <path
      d="M7.32858 19.5791V4.78573H18.4714V19.5791L13.3319 16.5811L12.9 16.3291L12.4681 16.5811L7.32858 19.5791Z"
      stroke-width="1.71429" />
  </symbol>

  <!-- cart -->
  <symbol id="cart-remove">
    <path
      d="M16.6907 8.90792L13.5638 12L16.6907 15.0921L17.455 15.8911L15.8916 17.4545L15.0925 16.6902L12.0004 13.5634L8.90838 16.6902L8.1093 17.4545L6.5459 15.8911L7.31023 15.0921L10.437 12L7.31023 8.90792L6.5459 8.10885L8.1093 6.54544L8.90838 7.30977L12.0004 10.4366L15.0925 7.30977L15.8916 6.54544L17.455 8.10885L16.6907 8.90792Z"
      fill="#A6ABAD" />
  </symbol>
  <!-- cart -->

  <!-- order -->
  <symbol id="order-height">
    <path
      d="M9.99957 5.92444L12.7996 8.72444V9.65778H10.9329V13.2667H12.7996V14.2L9.99957 17L7.19957 14.2V13.2667H9.06624V9.65778H7.19957V8.72444L9.99957 5.92444ZM16.6574 3V4.86667H3.3418V3H16.6574Z"
      fill="#30B45B" />
  </symbol>

  <symbol id="order-car">
    <path
      d="M3 3H5.625L11.75 9.89062V5.625H15.6055L15.8789 5.87109L18.5039 8.49609L18.75 8.76953V14.375H17C16.9818 15.1224 16.7266 15.7422 16.2344 16.2344C15.7422 16.7266 15.1224 16.9818 14.375 17C13.6276 16.9818 13.0078 16.7266 12.5156 16.2344C12.0234 15.7422 11.7682 15.1224 11.75 14.375H8.25C8.23177 15.1224 7.97656 15.7422 7.48438 16.2344C6.99219 16.7266 6.3724 16.9818 5.625 17C4.8776 16.9818 4.25781 16.7266 3.76562 16.2344C3.27344 15.7422 3.01823 15.1224 3 14.375H1.25V10H6.5L3.875 4.75V7.8125C3.85677 8.17708 3.72917 8.48698 3.49219 8.74219C3.23698 8.97917 2.92708 9.10677 2.5625 9.125C2.19792 9.10677 1.88802 8.97917 1.63281 8.74219C1.39583 8.48698 1.26823 8.17708 1.25 7.8125V6.9375H2.125V7.8125C2.14323 8.08594 2.28906 8.23177 2.5625 8.25C2.83594 8.23177 2.98177 8.08594 3 7.8125V3ZM17 10V9.48047L14.8945 7.375H13.5V10H17ZM6.9375 14.375C6.91927 13.8828 6.70052 13.5 6.28125 13.2266C5.84375 13.0078 5.40625 13.0078 4.96875 13.2266C4.54948 13.5 4.33073 13.8828 4.3125 14.375C4.33073 14.8672 4.54948 15.25 4.96875 15.5234C5.40625 15.7422 5.84375 15.7422 6.28125 15.5234C6.70052 15.25 6.91927 14.8672 6.9375 14.375ZM14.375 15.6875C14.8672 15.6693 15.25 15.4505 15.5234 15.0312C15.7422 14.5938 15.7422 14.1562 15.5234 13.7188C15.25 13.2995 14.8672 13.0807 14.375 13.0625C13.8828 13.0807 13.5 13.2995 13.2266 13.7188C13.0078 14.1562 13.0078 14.5938 13.2266 15.0312C13.5 15.4505 13.8828 15.6693 14.375 15.6875Z"
      fill="#30B45B" />
  </symbol>

  <symbol id="order-support">
    <path
      d="M10 4.3125C8.39583 4.34896 7.05599 4.90495 5.98047 5.98047C4.90495 7.05599 4.34896 8.39583 4.3125 10V11.75H3V10C3.01823 8.6875 3.33724 7.51172 3.95703 6.47266C4.57682 5.41536 5.41536 4.57682 6.47266 3.95703C7.51172 3.33724 8.6875 3.01823 10 3C11.3125 3.01823 12.4883 3.33724 13.5273 3.95703C14.5846 4.57682 15.4232 5.41536 16.043 6.47266C16.6628 7.51172 16.9818 8.6875 17 10V16.3438H11.75V17H9.5625C9.19792 16.9818 8.88802 16.8542 8.63281 16.6172C8.39583 16.362 8.26823 16.0521 8.25 15.6875C8.26823 15.3229 8.39583 15.013 8.63281 14.7578C8.88802 14.5208 9.19792 14.3932 9.5625 14.375H11.75V15.0312H15.6875V10C15.651 8.39583 15.0951 7.05599 14.0195 5.98047C12.944 4.90495 11.6042 4.34896 10 4.3125ZM8.25 9.125V13.5H5.1875V9.125H8.25ZM14.8125 9.125V13.5H11.75V9.125H14.8125Z"
      fill="#30B45B" />
  </symbol>

  <symbol id="order-helper">
    <path
      d="M4.75 3V13.5H18.75V15.25H16.043C16.0977 15.3958 16.125 15.5417 16.125 15.6875C16.1068 16.0521 15.9792 16.362 15.7422 16.6172C15.487 16.8542 15.1771 16.9818 14.8125 17C14.4479 16.9818 14.138 16.8542 13.8828 16.6172C13.6458 16.362 13.5182 16.0521 13.5 15.6875C13.5 15.5417 13.5273 15.3958 13.582 15.25H8.16797C8.22266 15.3958 8.25 15.5417 8.25 15.6875C8.23177 16.0521 8.10417 16.362 7.86719 16.6172C7.61198 16.8542 7.30208 16.9818 6.9375 17C6.57292 16.9818 6.26302 16.8542 6.00781 16.6172C5.77083 16.362 5.64323 16.0521 5.625 15.6875C5.625 15.5417 5.65234 15.3958 5.70703 15.25H3V4.75H1.25V3H4.75ZM11.75 3.875V11.75H6.5V3.875H11.75ZM16.125 3.875V7.375H12.625V3.875H16.125ZM12.625 8.25H17.875V11.75H12.625V8.25Z"
      fill="#30B45B" />
  </symbol>

  <symbol id="order-another-person">
    <path
      d="M8.35938 6.5L10.1094 5.625L11.8594 6.5V3H15.3594V10H4.85938V3H8.35938V6.5ZM6.0625 11.9414L6.30859 11.75H12.7344V13.5H9.23438V14.375H13.0352L15.6055 12.5977L16.5078 11.9688L17.7656 13.7734L16.8633 14.4023L13.3633 16.8086L13.0625 17H2.23438V13.5H4.12109L6.0625 11.9414Z"
      fill="#30B45B" />
  </symbol>
  <!-- order -->

  <!-- footer -->
  <symbol viewBox="0 0 24 24" id="footer-more">
    <path d="M16.59 8.59L12 13.17 7.41 8.59 6 10l6 6 6-6z" />
    <path d="M0 0h24v24H0z" fill="none" />
  </symbol>

  <symbol viewBox="0 0 24 24" id="footer-close">
    <path d="M16.59 8.59L12 13.17 7.41 8.59 6 10l6 6 6-6z" />
    <path d="M0 0h24v24H0z" fill="none" />
  </symbol>

  <symbol id="footer-number">
    <path
      d="M2.89478 3.90769L7.45399 2.89453L9.98688 7.45374L7.32734 9.57504C8.50936 11.7913 10.2085 13.4905 12.4248 14.6725L14.5461 12.013L19.1053 14.5458L18.0921 19.1051H17.079C14.4406 19.084 12.0554 18.4402 9.92356 17.1737C7.7917 15.9073 6.09255 14.2081 4.82611 12.0763C3.55966 9.94442 2.91588 7.55928 2.89478 4.92085V3.90769Z"
      fill="#30B45B" />
  </symbol>

  <symbol id="footer-email">
    <path
      d="M0.894775 0.920898H17.1053V3.45379L9.00004 9.02616L0.894775 3.45379V0.920898ZM0.894775 13.0788V4.68858L8.43014 9.84935L9.00004 10.2609L9.56994 9.84935L17.1053 4.68858V13.0788H0.894775Z"
      fill="#30B45B" />
  </symbol>

  <symbol id="footer-location">
    <path
      d="M11 19.1051C10.9789 19.084 10.6622 18.7251 10.0501 18.0286C9.45912 17.332 8.76258 16.4455 7.96049 15.369C7.17952 14.2926 6.48297 13.1844 5.87086 12.0446C5.27985 10.9048 4.96324 9.8811 4.92102 8.97348C4.96324 7.24267 5.55424 5.80736 6.69405 4.66756C7.83385 3.52775 9.26916 2.93675 11 2.89453C12.7308 2.93675 14.1661 3.52775 15.3059 4.66756C16.4457 5.80736 17.0367 7.24267 17.0789 8.97348C17.0578 9.8811 16.7412 10.9048 16.1291 12.0446C15.5381 13.1844 14.8415 14.2926 14.0394 15.369C13.2585 16.4455 12.5619 17.332 11.9498 18.0286C11.3588 18.7251 11.0422 19.084 11 19.1051ZM11 6.94716C10.2401 6.96827 9.65964 7.30599 9.2586 7.96032C8.87867 8.63576 8.87867 9.3112 9.2586 9.98664C9.65964 10.641 10.2401 10.9787 11 10.9998C11.7598 10.9787 12.3403 10.641 12.7413 9.98664C13.1213 9.3112 13.1213 8.63576 12.7413 7.96032C12.3403 7.30599 11.7598 6.96827 11 6.94716Z"
      fill="#30B45B" />
  </symbol>
  <!-- footer -->

  <!-- mobile-menu -->
  <symbol id="mobile-menu-home">
    <path
      d="M13.9804 4L14.6067 4.50881L20.8689 9.8317V6.46575H22.7476V11.4364L24.9393 13.2759L23.6869 14.6849L22.7476 13.9022V24H5.21331V13.9022L4.27398 14.6849L3.06067 13.2759L13.3933 4.50881L13.9804 4ZM7.09198 12.2975V22.1213H10.2231V14.6067H17.7378V22.1213H20.8689V12.2975L13.9804 6.46575L7.09198 12.2975ZM15.8591 16.4853H12.1018V22.1213H15.8591V16.4853Z"
      fill="#1A1D1F" />
  </symbol>

  <symbol id="mobile-menu-services">
    <rect x="5.5" y="5.5" width="6" height="6" stroke="#1A1D1F" stroke-width="2" />
    <rect x="5.5" y="16.5" width="6" height="6" stroke="#1A1D1F" stroke-width="2" />
    <rect x="16.5" y="5.5" width="6" height="6" stroke="#1A1D1F" stroke-width="2" />
    <rect x="16.5" y="16.5" width="6" height="6" stroke="#1A1D1F" stroke-width="2" />
  </symbol>
  <!-- mobile-menu -->
</svg>