<svg width="220" height="60" viewBox="0 0 220 60" fill="none" xmlns="http://www.w3.org/2000/svg">
<g clip-path="url(#clip0_2002_365)">
<path d="M30.5618 30.2996H33.8577V31.8727L30.5618 33.7453V30.2996Z" fill="#4E4E4E"/>
<path d="M30.5618 25.6929L33.8577 27.5655V29.2135H30.5618V25.6929Z" fill="#4E4E4E"/>
<path d="M30 0L60 16.8165V23.1086L56.7416 21.2734V24.0824L51.161 20.9363V18.1273L30 6.29213L8.8764 18.1273V41.8352L15.9925 45.8052V37.4532V27.9775L13.221 29.5131V23.221L30.0375 13.7828L51.161 25.6554L56.7416 28.764V44.9064L30 59.8876L3.25843 44.9813V21.2734L0 23.1086V16.8165L30 0ZM21.573 24.8689V34.3446L30 39.0637L38.4644 34.3446V29.7753V24.8689L30 20.1498L21.573 24.8689ZM24.794 42.4344L21.4607 40.5618V48.9138L24.794 50.7865V42.4344ZM29.4382 45.0562L25.9176 43.0712V51.4232L29.4382 53.4082V45.0562ZM33.97 43.1461L30.5618 45.0562V53.4082L33.97 51.4981V43.1461ZM38.4644 40.6367L35.0936 42.5094V50.8614L38.4644 48.9888V40.6367ZM42.9963 38.0899L39.588 40V48.3521L42.9963 46.4419V38.0899ZM42.9963 27.4157L39.588 25.5056V30.412L42.9963 32.3221V27.4157ZM44.0824 45.8427C50.5618 42.2097 47.0787 44.1573 51.1985 41.8727V32.0225C46.8914 29.6255 49.8876 31.2734 44.0824 28.0524V45.8801V45.8427ZM17.1161 46.4794L20.3371 48.2771V39.9251L17.1161 38.1273V46.4794Z" fill="#4E4E4E"/>
<path d="M26.1423 30.2996H29.4757V33.7453L26.1423 31.8727V30.2622V30.2996ZM26.1423 27.5655L29.4757 25.6929V29.2135H26.1423V27.5655Z" fill="#30B45B"/>
<path d="M30 6.29213L8.8764 18.1273V41.8352L15.9925 45.8052V28.015L13.221 29.5506V23.2584L30.0375 13.8202V20.1124L21.573 24.8315L21.6479 34.2697L30 38.9513V59.9251L3.25843 44.9813V21.2734L0 23.1086V16.8165L30 0V6.29213ZM24.7566 42.4345L21.4232 40.5618L21.4981 48.8764L24.7566 50.7865V42.4345ZM29.4007 45.0562L25.8801 43.0712V51.4232L29.4007 53.3333V45.0936V45.0562ZM17.0787 46.4794L20.2996 48.2772V39.9251L17.0787 38.1273V46.4794Z" fill="#1A1D1F"/>
<path d="M181.835 37.5281L194.569 20.4869V37.5281H199.625V11.985H194.569L181.835 28.9888V11.985H176.742V37.5281H181.835ZM170.562 37.5281L173.071 35.0188V14.5693L170.562 11.985H152.697L150.187 14.5693V35.0188L152.697 37.5281H170.562ZM155.281 32.4345V17.0787H168.015V32.397H155.281V32.4345ZM129.101 37.5281V29.8877H144.382L146.891 27.3409V14.5693L144.382 11.985H123.97V37.5281H129.064H129.101ZM129.101 24.794V17.0787H141.835V24.794H129.101ZM112.584 37.5281V17.0787H121.461V11.985H98.5393V17.0787H107.491V37.5281H112.584ZM93.8202 37.5281L96.3296 35.0188V29.9251H91.2734V32.4345H78.5393V17.0787H91.2734V19.6255H96.3296V14.5693L93.8202 11.985H75.955L73.4457 14.5693V35.0188L75.955 37.5281H93.8202Z" fill="#1A1D1F"/>
<path d="M179.251 6.8914L181.835 9.43822H194.569L197.116 6.8914V1.79777H192.022V5.1311H184.345V1.79777H179.251V6.8914Z" fill="#1A1D1F"/>
<path d="M72.8839 52.4345L76.2922 43.8577H78.3521L81.7978 52.4345H79.6629L79.1386 50.9738H75.5056L74.9813 52.4345H72.8465H72.8839ZM77.3783 46.03H77.3408L76.1049 49.4757H78.6517L77.4158 46.03H77.3783Z" fill="#30B45B"/>
<path d="M90.1872 50.8989C90.5992 50.8989 91.0112 50.824 91.4606 50.7116C91.9101 50.5993 92.2472 50.412 92.5468 50.2247L92.8464 51.9101C92.0599 52.3596 91.161 52.6217 90.0749 52.6217C88.6891 52.6217 87.5281 52.2098 86.6666 51.4232C85.7678 50.6367 85.3558 49.5506 85.3558 48.2397C85.3558 46.9289 85.8052 45.8427 86.6666 44.9813C87.5281 44.1199 88.6891 43.7079 90.0749 43.7079C90.9737 43.7079 91.8352 43.8952 92.6217 44.3071C92.6217 44.3071 92.5468 44.6068 92.3595 45.1686L92.1348 46.03C91.4981 45.618 90.8239 45.4307 90.0374 45.4307C89.1385 45.4307 88.4644 45.6929 87.94 46.2547C87.4157 46.8165 87.1535 47.4532 87.1535 48.2772C87.1535 49.1011 87.4157 49.7378 87.9775 50.2247C88.5393 50.7116 89.2134 50.9364 90.0749 50.9364L90.1872 50.8989Z" fill="#30B45B"/>
<path d="M101.423 50.8989C101.835 50.8989 102.247 50.824 102.697 50.7116C103.146 50.5993 103.483 50.412 103.783 50.2247L104.082 51.9101C103.296 52.3596 102.397 52.6217 101.311 52.6217C99.9251 52.6217 98.764 52.2098 97.9026 51.4232C97.0037 50.6367 96.5918 49.5506 96.5918 48.2397C96.5918 46.9289 97.0412 45.8427 97.9026 44.9813C98.764 44.1199 99.9251 43.7079 101.311 43.7079C102.21 43.7079 103.071 43.8952 103.858 44.3071C103.858 44.3071 103.783 44.6068 103.596 45.1686L103.371 46.03C102.734 45.618 102.06 45.4307 101.273 45.4307C100.375 45.4307 99.7004 45.6929 99.176 46.2547C98.6517 46.8165 98.3895 47.4532 98.3895 48.2772C98.3895 49.1011 98.6517 49.7378 99.2135 50.2247C99.7753 50.7116 100.449 50.9364 101.311 50.9364L101.423 50.8989Z" fill="#30B45B"/>
<path d="M109.139 44.9438C109.963 44.1199 111.011 43.6704 112.285 43.6704C113.558 43.6704 114.607 44.0824 115.431 44.9438C116.255 45.7678 116.667 46.854 116.667 48.1274C116.667 49.4008 116.255 50.4869 115.431 51.3483C114.607 52.1723 113.558 52.6218 112.285 52.6218C111.011 52.6218 109.963 52.2098 109.139 51.3483C108.315 50.5244 107.903 49.4382 107.903 48.1274C107.903 46.8165 108.315 45.7678 109.139 44.9438ZM109.775 48.1274C109.775 48.9139 110 49.588 110.487 50.1124C110.936 50.6367 111.536 50.8989 112.285 50.8989C113.034 50.8989 113.633 50.6367 114.082 50.1124C114.532 49.588 114.794 48.9513 114.794 48.1274C114.794 47.3034 114.569 46.6667 114.082 46.1423C113.633 45.618 113.034 45.3558 112.285 45.3558C111.536 45.3558 110.936 45.618 110.487 46.1423C110.037 46.6667 109.775 47.3034 109.775 48.1274Z" fill="#30B45B"/>
<path d="M125.393 49.8502H122.921V52.4345H121.049V43.8577H125.393C126.292 43.8577 127.041 44.1573 127.603 44.7191C128.165 45.2809 128.502 46.03 128.502 46.854C128.502 47.6779 128.202 48.427 127.64 48.9888C127.041 49.5506 126.33 49.8128 125.393 49.8128V49.8502ZM125.281 45.5806H122.921V48.1648H125.281C125.693 48.1648 126.03 48.0525 126.255 47.7903C126.479 47.5281 126.629 47.2285 126.629 46.8914C126.629 46.5543 126.517 46.2173 126.255 45.9551C125.993 45.6929 125.693 45.5806 125.281 45.5806Z" fill="#30B45B"/>
<path d="M136.554 52.4345H134.682V45.5805H132.097V43.8952H139.176V45.5805H136.592V52.4345H136.554Z" fill="#30B45B"/>
<path d="M148.876 47.191L144.869 52.4345H143.296V43.8577H145.168V49.1011H145.206L149.213 43.8577H150.786V52.4345H148.914V47.191H148.876Z" fill="#30B45B"/>
<path d="M157.416 46.7791H157.378V52.4345H155.506V43.8577H157.903L160.225 49.3259H160.262L162.584 43.8577H164.981V52.4345H163.109V46.7791H163.071L160.712 52.4345H159.7L157.341 46.7791H157.416Z" fill="#30B45B"/>
<path d="M176.142 49.0263H171.61V50.7116H176.629V52.397H169.738V43.8203H176.517V45.5057H171.573V47.4532H176.105V48.9888L176.142 49.0263Z" fill="#30B45B"/>
<path d="M182.921 47.3409H186.704V43.8577H188.577V52.4345H186.704V49.1386H182.921V52.4345H181.049V43.8577H182.921V47.3409Z" fill="#30B45B"/>
<path d="M197.079 52.4345H195.206V45.5805H192.622V43.8952H199.7V45.5805H197.116V52.4345H197.079Z" fill="#30B45B"/>
</g>
<defs>
<clipPath id="clip0_2002_365">
<rect width="200" height="60" fill="white"/>
</clipPath>
</defs>
</svg>
