<svg width="220" height="60" viewBox="0 0 220 60" fill="none" xmlns="http://www.w3.org/2000/svg">
<g clip-path="url(#clip0_34_2739)">
<path d="M30.5618 30.2998H33.8577V31.8728L30.5618 33.7455V30.2998Z" fill="#B3B3B3"/>
<path d="M30.5618 25.6929L33.8577 27.5655V29.2135H30.5618V25.6929Z" fill="#B3B3B3"/>
<path d="M30 0L60 16.8165V23.1086L56.7416 21.2734V24.0824L51.161 20.9363V18.1273L30 6.29213L8.8764 18.1273V41.8352L15.9925 45.8052V37.4532V27.9775L13.221 29.5131V23.221L30.0375 13.7828L51.161 25.6554L56.7416 28.764V44.9064L30 59.8876L3.25843 44.9813V21.2734L0 23.1086V16.8165L30 0ZM21.573 24.8689V34.3446L30 39.0637L38.4644 34.3446V29.7753V24.8689L30 20.1498L21.573 24.8689ZM24.794 42.4344L21.4607 40.5618V48.9138L24.794 50.7865V42.4344ZM29.4382 45.0562L25.9176 43.0712V51.4232L29.4382 53.4082V45.0562ZM33.97 43.1461L30.5618 45.0562V53.4082L33.97 51.4981V43.1461ZM38.4644 40.6367L35.0936 42.5094V50.8614L38.4644 48.9888V40.6367ZM42.9963 38.0899L39.588 40V48.3521L42.9963 46.4419V38.0899ZM42.9963 27.4157L39.588 25.5056V30.412L42.9963 32.3221V27.4157ZM44.0824 45.8427C50.5618 42.2097 47.0787 44.1573 51.1985 41.8727V32.0225C46.8914 29.6255 49.8876 31.2734 44.0824 28.0524V45.8801V45.8427ZM17.1161 46.4794L20.3371 48.2771V39.9251L17.1161 38.1273V46.4794Z" fill="#B3B3B3"/>
<path d="M26.1423 30.2996H29.4757V33.7453L26.1423 31.8726V30.2622V30.2996ZM26.1423 27.5655L29.4757 25.6929V29.2135H26.1423V27.5655Z" fill="#30B45B"/>
<path d="M30 6.29213L8.8764 18.1273V41.8352L15.9925 45.8052V28.015L13.221 29.5506V23.2584L30.0375 13.8202V20.1124L21.573 24.8315L21.6479 34.2697L30 38.9513V59.9251L3.25843 44.9813V21.2734L0 23.1086V16.8165L30 0V6.29213ZM24.7566 42.4345L21.4232 40.5618L21.4981 48.8764L24.7566 50.7865V42.4345ZM29.4007 45.0562L25.8801 43.0712V51.4232L29.4007 53.3333V45.0936V45.0562ZM17.0787 46.4794L20.2996 48.2772V39.9251L17.0787 38.1273V46.4794Z" fill="white"/>
<path d="M181.835 37.5284L194.569 20.4872V37.5284H199.625V11.9854H194.569L181.835 28.9891V11.9854H176.742V37.5284H181.835ZM170.562 37.5284L173.071 35.0191V14.5696L170.562 11.9854H152.697L150.187 14.5696V35.0191L152.697 37.5284H170.562ZM155.281 32.4348V17.079H168.015V32.3973H155.281V32.4348ZM129.101 37.5284V29.888H144.382L146.891 27.3412V14.5696L144.382 11.9854H123.97V37.5284H129.064H129.101ZM129.101 24.7943V17.079H141.835V24.7943H129.101ZM112.584 37.5284V17.079H121.461V11.9854H98.5393V17.079H107.491V37.5284H112.584ZM93.8202 37.5284L96.3296 35.0191V29.9254H91.2734V32.4348H78.5393V17.079H91.2734V19.6258H96.3296V14.5696L93.8202 11.9854H75.955L73.4457 14.5696V35.0191L75.955 37.5284H93.8202Z" fill="white"/>
<path d="M179.251 6.89148L181.835 9.4383H194.569L197.116 6.89148V1.79785H192.022V5.13118H184.345V1.79785H179.251V6.89148Z" fill="white"/>
<path d="M72.8839 52.4342L76.2922 43.8574H78.3521L81.7978 52.4342H79.6629L79.1386 50.9735H75.5056L74.9813 52.4342H72.8465H72.8839ZM77.3783 46.0297H77.3408L76.1049 49.4754H78.6517L77.4158 46.0297H77.3783Z" fill="#30B45B"/>
<path d="M90.1872 50.899C90.5992 50.899 91.0112 50.8241 91.4606 50.7118C91.9101 50.5994 92.2472 50.4121 92.5468 50.2249L92.8464 51.9103C92.0599 52.3597 91.161 52.6219 90.0749 52.6219C88.6891 52.6219 87.5281 52.2099 86.6666 51.4234C85.7678 50.6368 85.3558 49.5507 85.3558 48.2398C85.3558 46.929 85.8052 45.8428 86.6666 44.9814C87.5281 44.12 88.6891 43.708 90.0749 43.708C90.9737 43.708 91.8352 43.8953 92.6217 44.3073C92.6217 44.3073 92.5468 44.6069 92.3595 45.1687L92.1348 46.0301C91.4981 45.6181 90.8239 45.4309 90.0374 45.4309C89.1385 45.4309 88.4644 45.693 87.94 46.2548C87.4157 46.8166 87.1535 47.4533 87.1535 48.2773C87.1535 49.1013 87.4157 49.738 87.9775 50.2249C88.5393 50.7118 89.2134 50.9365 90.0749 50.9365L90.1872 50.899Z" fill="#30B45B"/>
<path d="M101.423 50.899C101.835 50.899 102.247 50.8241 102.697 50.7118C103.146 50.5994 103.483 50.4121 103.783 50.2249L104.082 51.9103C103.296 52.3597 102.397 52.6219 101.311 52.6219C99.9251 52.6219 98.764 52.2099 97.9026 51.4234C97.0037 50.6368 96.5918 49.5507 96.5918 48.2398C96.5918 46.929 97.0412 45.8428 97.9026 44.9814C98.764 44.12 99.9251 43.708 101.311 43.708C102.21 43.708 103.071 43.8953 103.858 44.3073C103.858 44.3073 103.783 44.6069 103.596 45.1687L103.371 46.0301C102.734 45.6181 102.06 45.4309 101.273 45.4309C100.375 45.4309 99.7004 45.693 99.176 46.2548C98.6517 46.8166 98.3895 47.4533 98.3895 48.2773C98.3895 49.1013 98.6517 49.738 99.2135 50.2249C99.7753 50.7118 100.449 50.9365 101.311 50.9365L101.423 50.899Z" fill="#30B45B"/>
<path d="M109.139 44.9438C109.963 44.1198 111.011 43.6704 112.285 43.6704C113.558 43.6704 114.607 44.0824 115.431 44.9438C116.255 45.7678 116.667 46.8539 116.667 48.1273C116.667 49.4007 116.255 50.4869 115.431 51.3483C114.607 52.1723 113.558 52.6217 112.285 52.6217C111.011 52.6217 109.963 52.2097 109.139 51.3483C108.315 50.5243 107.903 49.4382 107.903 48.1273C107.903 46.8165 108.315 45.7678 109.139 44.9438ZM109.775 48.1273C109.775 48.9139 110 49.588 110.487 50.1124C110.936 50.6367 111.536 50.8989 112.285 50.8989C113.034 50.8989 113.633 50.6367 114.082 50.1124C114.532 49.588 114.794 48.9513 114.794 48.1273C114.794 47.3034 114.569 46.6667 114.082 46.1423C113.633 45.618 113.034 45.3558 112.285 45.3558C111.536 45.3558 110.936 45.618 110.487 46.1423C110.037 46.6667 109.775 47.3034 109.775 48.1273Z" fill="#30B45B"/>
<path d="M125.393 49.8499H122.921V52.4342H121.049V43.8574H125.393C126.292 43.8574 127.041 44.157 127.603 44.7188C128.165 45.2806 128.502 46.0297 128.502 46.8537C128.502 47.6776 128.202 48.4267 127.64 48.9885C127.041 49.5503 126.33 49.8125 125.393 49.8125V49.8499ZM125.281 45.5803H122.921V48.1645H125.281C125.693 48.1645 126.03 48.0522 126.255 47.79C126.479 47.5278 126.629 47.2282 126.629 46.8911C126.629 46.5541 126.517 46.217 126.255 45.9548C125.993 45.6926 125.693 45.5803 125.281 45.5803Z" fill="#30B45B"/>
<path d="M136.554 52.4343H134.682V45.5804H132.097V43.895H139.176V45.5804H136.592V52.4343H136.554Z" fill="#30B45B"/>
<path d="M148.876 47.1908L144.869 52.4342H143.296V43.8574H145.168V49.1009H145.206L149.213 43.8574H150.786V52.4342H148.914V47.1908H148.876Z" fill="#30B45B"/>
<path d="M157.416 46.7788H157.378V52.4342H155.506V43.8574H157.903L160.225 49.3256H160.262L162.584 43.8574H164.981V52.4342H163.109V46.7788H163.071L160.712 52.4342H159.7L157.341 46.7788H157.416Z" fill="#30B45B"/>
<path d="M176.142 49.0263H171.61V50.7117H176.629V52.3971H169.738V43.8203H176.517V45.5057H171.573V47.4533H176.105V48.9889L176.142 49.0263Z" fill="#30B45B"/>
<path d="M182.921 47.3406H186.704V43.8574H188.577V52.4342H186.704V49.1383H182.921V52.4342H181.049V43.8574H182.921V47.3406Z" fill="#30B45B"/>
<path d="M197.079 52.4343H195.206V45.5804H192.622V43.895H199.7V45.5804H197.116V52.4343H197.079Z" fill="#30B45B"/>
</g>
<defs>
<clipPath id="clip0_34_2739">
<rect width="200" height="60" fill="white"/>
</clipPath>
</defs>
</svg>
